<?xml version="1.0" encoding="UTF-8"?><svg id="a" xmlns="http://www.w3.org/2000/svg" viewBox="0 0 102.1 50"><defs><style>.b{fill:#fff;}</style></defs><path class="b" d="M37.58,41.93c-.2,.05-.66,.08-1.04,.27-.37,.19-.76,.5-.96,.86-.56,1.02-.97,2.13-1.55,3.13-.33,.56-.9,.97-1.33,1.48-.91,1.09-2.02,1.89-3.48,2.32-.98-1.07-2.16-1.42-3.69-.76-.51,.22-1.36,.01-1.91-.27-1.16-.58-2.21-1.36-3.33-2.03-.43-.26-.9-.44-1.4-.68v.72c-.67-.14-1.33-.28-1.99-.44-.08-.02-.17-.2-.17-.31,.01-.98,.07-1.95,.07-2.93,0-.61,.06-1.19-.56-1.71-.37-.3-.5-1.04-.52-1.59-.05-1.53-.52-1.58-2-1.94-1.47-.35-2.96-.58-4.44-.88-.18-.04-.4-.1-.52-.22-.79-.83-1.56-1.67-2.32-2.52-.08-.09-.16-.23-.14-.34,.31-2.17-1.39-3.74-1.71-5.72-.03-.18-.25-.39-.43-.49-1.18-.67-2.37-1.32-3.56-1.97-.14-.08-.36-.09-.43-.2-.52-.9,.34-1.5,.54-2.24,.12-.44,.32-.89,.97-.48l-.39,1.42,.14,.05,.86-1.84,.14,.05-.62,2.04,.33,.12c.16-.32,.3-.64,.48-.95,.18-.3,.4-.59,.61-.88l.68,.51c.44-1.31,.91-2.75,1.43-4.18,.1-.27,.37-.47,.57-.71,.03,.34,.11,.68,.09,1.01-.02,.26-.16,.52-.12,.81,.79-.69,.73-1.56,.4-2.51l1.33-.36-.03-.2h-1.91l-.02-.17,.55-.33-1.36-.09,1.86-2.41,2.07,1.2c.15-.67,.35-1.26,.39-1.87,.04-.71,.22-.99,.99-.78,1.05,.29,2.13,.47,3.37,.73-.99-1.39-2.84-.9-3.8-2.07,.24-.45,.46-.99,.8-1.46,.22-.31,.65-.47,.89-.77,.37-.47,.78-.8,.87-1.6,.11-1.12,.9-2.17,1.44-3.24,.03-.07,.37-.06,.51,.01,.91,.46,1.83,.91,2.7,1.43,.3,.18,.49,.56,.7,.87,.25,.37,.46,.77,.86,.99,.05-1.34-.81-1.92-1.68-2.49-.84-.54-1.69-1.05-2.59-1.61,.75-1.1,1.37-2.11,2.09-3.04,.15-.19,.85-.26,.99-.11,.53,.56,.9,1.26,1.38,1.86,.36,.44,.78,.84,1.2,1.22,.3,.27,.71,.45,.96,.75,1,1.22,1.89,2.53,2.95,3.69,.5,.55,1.23,1.04,1.95,1.24,1.24,.34,2.32,.82,3.19,1.79,1.58,1.77,3.62,2.7,5.94,2.95,.9,.1,1.52,.5,1.95,1.19,1.29,2.06,3.09,2.37,5.12,1.55,.72-.29,1.62-.14,2.44-.22,.77-.07,1.61-.01,2.27-.32,1.27-.58,.59-1.81,.66-2.79,0-.09-.08-.18-.09-.27-.05-.49-.24-1.34-.1-1.4,.71-.3,1.34-.7,2.3-.6,1.38,.15,2.58,1.29,4.07,.71,.16-.06,.43,.19,.65,.28,.29,.11,.59,.26,.88,.26,.35,0,.85-.31,1.02-.17,.43,.35,.93,.85,1.01,1.35,.21,1.34,1.56,1.57,2.22,2.47,.47,.64,1.45,.15,1.75-.67,.15-.39,.42-.78,.74-1.06,.45-.4,1.39-.14,1.48-1.09,0-.05,.7-.16,.78-.05,.83,1.23,1.44,.01,2.04-.24,.46-.19,.76-.71,1.4-.48,.15,.05,.47-.18,.6-.36,.6-.85,1.13-1.74,1.75-2.58,.16-.22,.54-.34,.84-.39,.65-.12,1.35-.07,1.96-.29,.36-.13,.56-.66,.84-1.01,.3-.37,.54-.96,.92-1.07,1.06-.31,1.32-1.14,1.62-1.99,1.79-.59,1.11,1.23,1.82,1.78,1.15,.04,1.79-.45,2.11-1.75,.19-.78,.84-1.45,.81-2.38-.02-.57,.36-.77,.93-.85,1.78-.27,3.54-.59,5.31-.94,.35-.07,.68-.32,.98-.54,.7-.49,1.35-.26,1.41,.6,.05,.82,.03,1.67-.11,2.47-.21,1.19,.64,2.16,1.83,2.11,.67-.03,1.38,.11,2,.35,.27,.1,.37,.65,.53,1.01,.19,.43,.26,1.11,.57,1.25,.48,.21,1.09,.28,1.59-.38,.3-.4,1.03-.53,1.6-.67,.83-.21,1.69-.31,2.54-.48,.54-.11,1.03-.18,1.18,.55,.03,.12,.2,.22,.3,.32,.27,.28,.68,.54,.74,.86,.05,.25-.28,.69-.56,.85-.69,.42-.75,1-.92,1.74-.31,1.32-.14,2.86-1.29,3.91-.15,.13-.42,.15-.64,.18-.4,.05-.81,.07-1.04,.09-.38,.71-.68,1.35-1.07,1.93-.13,.2-.53,.2-.76,.36-.7,.48-1.03,1.12-.72,1.99,.11,.3,.18,.61,.25,.92,.16,.72-.19,.93-.87,1.01-.43,.05-.83,.36-1.23,.58-.35,.2-.68,.43-1.05,.67l-1.11,2.22c-1.3-1.41-2.99-1.14-4.54-1.51-.86,.92-1.42,.95-2.51,.03-.38-.32-.7-.74-1.11-1-.19-.12-.7-.07-.82,.09-.4,.51-.75,1.08-1.02,1.68-.45,1.01-.73,1.11-1.67,.5-.17-.11-.4-.12-.59-.2-.2-.09-.38-.2-.57-.31l.03,.3c-.7,.15-1.39,.3-2.09,.46-.23,.05-.51,.08-.66,.23-1.09,1.04-1.18,1.05-2.12-.02-.15-.17-.3-.33-.27-.3-.8,.41-1.53,.7-2.17,1.13-.3,.2-.5,.63-.63,1-.23,.65-.65,.9-1.3,.86-.57-.04-1.14-.05-1.71-.13-.93-.12-1.8,.21-2.07,1.01-.37,1.12-1.34,1.46-2.08,2.09-.65,.56-1.4,1.01-2.14,1.53-1.06-.6-1.5-.43-2.05,1.01-.14-.26-.23-.42-.3-.58-.08-.2-.14-.41-.2-.61-1.41,.05-1.73,.27-2.12,1.53-.28,.9-.57,1.76-1.45,2.29-.17,.1-.22,.43-.31,.64q-2.23,.02-4.02-.76c-1.16,.72-2.18,1.44-3.28,2-.31,.16-.87-.09-1.29-.24-.55-.2-1.06-.5-1.64-.65,.55,1.65-.56,2.47-1.57,3.68,.11-1.44,.87-2.79-.7-3.72-.55,.16-1.32,.41-1.62-.69-.03-.11-.68-.23-.87-.1-.44,.31-.99,.71-1.11,1.18-.4,1.51-.62,3.07-.95,4.82Z"/></svg>