<?xml version="1.0" encoding="UTF-8"?><svg id="a" xmlns="http://www.w3.org/2000/svg" viewBox="0 0 37.69 50"><defs><style>.b{fill:#fff;}</style></defs><path class="b" d="M26.45,44.19c-.41,.41-.71,2.17-.36,2.49,.36,.32,.96,.4,1.46,.55,.38,.11,.82,.09,1.14,.28,.34,.21,.57,.6,.84,.91-.31,.13-.63,.26-.94,.4-.77,.33-1.54,.66-2.29,1.01-.42,.2-.78,.31-1.14-.14-.15-.19-.5-.39-.69-.34-.83,.23-1.48-.07-2.18-.44-.28-.15-.79-.1-1.09,.05-1.32,.68-2.33,.38-2.85-.97-.39-1.01-.71-2.03-1.06-3.05-.21,.07-.55,.29-.88,.26-.28-.02-.53-.32-.8-.5l.08-.21-1.03-.08-.3-1.31-.83,.72c0-.81-.32-1.43,.27-2.15,.49-.6-.13-1.09-.58-1.51-.49-.45-1.03-.86-1.42-1.38-.91-1.26-2.11-1.32-3.1-.14-.39,.47-.86,.89-1.34,1.27-.67,.54-1.36,.21-1.53-.65-.25-1.22-.52-2.44-.82-3.65-.28-1.11,.07-1.76,1.13-2.01,1.77-.4,2.54-1.48,2.88-3.22,.39-2.03-.13-3.87-1.16-5.43-1.12-1.69-2.56-3.24-4.97-3.15-.71,.03-1.45-.25-2.13-.52-.72-.28-1.01-1.05-.5-1.57,.76-.76,.4-1.41,.03-2.21,.87,0,1.09-.52,1.13-1.24,.02-.3,.21-.64,.43-.88,.99-1.1,2.05-2.14,3.02-3.25,.64-.74,1.16-1.59,1.78-2.35,.62-.75,1.3-1.46,1.97-2.21,.6,1.01,1.73,.42,2.7,.35,.25-.02,.61-.84,.6-1.29-.03-.86,.33-1.2,1.09-1.23,.5-.02,.89-.39,1.25-.49,1.05-.29,1.42-.82,1.54-1.85,.03-.24,.95-.38,1.52-.59-.28-.89,0-1.65,.73-2.24,.54-.44,1.07-.26,1.27,.41,.52,1.81,1.79,2.66,3.81,2.44-.1,.6-.2,1.15-.3,1.7-.07,.41-.11,.83-.23,1.23-.11,.37-.26,.75-.48,1.06-.62,.88-.5,1.42,.48,1.82,.45,.19,1.06,.24,1.32,.58,.33,.41,.41,1.04,.52,1.59,.04,.19-.18,.43,0,.58,.25,.5,.46,1.02,.75,1.49,.26,.43,.55,.9,.94,1.18,.44,.31,.75,.55,.68,1.15-.02,.2,.23,.43,.46,.83-.17,.13-.47,.36-.78,.6-.09,.07-.19,.13-.24,.23-.33,.62-.65,1.24-.97,1.86-.35,.66-.24,1.2,.56,1.29,2,.25,3.41,1.38,4.61,2.9,.42,.53,.34,1.7-.14,2.19-.21,.21-.47,.62-.39,.83,.34,.98-.06,1.7-.57,2.47-.13,.2-.02,.71,.16,.91,.28,.31,.72,.47,1.22,.77-.71,.67-1.13,.97-1.43,1.38-.18,.25-.3,.69-.22,.98,.31,1.13,1.1,1.79,2.22,2.14,.7,.22,1.44,.46,2.01,.88,1.23,.9,2.43,1.07,3.77,.32,.1-.06,.24-.05,.49-.1,.05,.41,.19,.8,.12,1.15-.04,.2-.43,.5-.61,.47-.83-.14-1.64-.59-2.43,.13-.09,.08-.39-.06-.59-.1-.27-.05-.54-.09-.8-.17-.98-.28-1.76-.15-2.38,.81-.17,.26-.92,.3-1.35,.21-1.09-.22-2.2-.79-2.95,.6-.02,.04-.11,.08-.16,.07-.67-.04-1.16,.11-1.09,.95,.05,.55-.22,1.15,.49,1.54,.18,.1,.22,.69,.13,1-.19,.66-.21,1.21,.53,1.61Z"/></svg>