<?xml version="1.0" encoding="UTF-8"?><svg id="a" xmlns="http://www.w3.org/2000/svg" viewBox="0 0 52.54 50"><defs><style>.b{fill:#fff;}</style></defs><path class="b" d="M12.92,13.43c.02-2.45-1.74-3.39-3.53-4.07,.96-1.61,1.85-3.14,2.79-4.64,.2-.32,.54-.56,.85-.8,.27-.22,.68-.31,.87-.58,.92-1.33,2.43-1.69,3.68-2.48,1.19-.74,2.52,.21,3.49-.83,.12-.13,.81,.18,1.19,.37,1.72,.9,3.68,1.6,3.47,4.17-.02,.3,.58,.66,1.12,1.23,.03,1.37,.9,1.99,3.08,1.61-.4,1-.92,2.1,.96,2.23l-.04,.37c-.91,.54-1.78,1.16-2.74,1.61-.97,.45-2.02,.73-2.7,.96,.54,1.25,.76,2.56,1.52,3.35,1.05,1.08,2.5,1.76,3.79,2.59,.28,.18,.7,.15,.96,.34,1.59,1.14,2.82,1,3.87-.24l-1.41-3.51c1.05-.13,1.96-1.44,3.03-.03l1.02-1.98,.97,.66c1.41,.06,2.59,.14,3.77,.16,1.21,.03,2.43,0,3.45,0,.53,1.49-1.29,3.15,.44,4.7,.32,.29,.28,1.05,.29,1.6,.02,1.65,.9,2.31,2.46,1.81,1.3-.42,2.55,.21,2.97,1.5-.51,.34-.98,.76-1.53,.99-.6,.24-1.28,.24-1.91,.43-1.43,.42-2.85,.89-4.27,1.34-.74,.24-1.47,.5-2.2,.74-.66,.22-1.44,.28-1.92,.69-.19,.16,.29,1.1,.49,1.68,.05,.15,.2,.28,.3,.4-.83,1.07-1.6,1.88-3.15,1.87-.84,0-2.01,.46-2.06,2.08-.02,.66-1.67,1.79-2.58,1.79-1.73,0-2.79,1.07-3.62,2.03-.9,1.04-1.93,1.12-2.99,1.41-.87,.23-1.85-.06-2.34,1.2-.19,.48-1.35,.57-2.02,.82,0,1.55,.18,3.04-.08,4.44-.11,.59-1.06,1.21-1.75,1.47-.97,.36-2.1,.31-2.37,1.66-.03,.17-.4,.3-.63,.39-.85,.34-1.69,.71-2.56,.97-.68,.2-1.21-.04-1.36-.85-.07-.35-.21-.86-.47-.98-2.02-.94-2.4-2.88-2.94-4.7-.1-.34,.15-.87,.39-1.19,.34-.45,.82-.79,1.26-1.19-.89-1.3-1.73-2.52-2.54-3.74-.54-.8-1.34-1.1-2.06-.55-.81,.62-1.4,.27-2.1-.01-.44-.18-.9-.32-1.47-.52l1.37-.48-.73-.96c.64-.96-.23-2.33-1.75-2.77,.29-1.27,.66-2.09,.97-2.24l-1.37-.63,.45-.13c.14-.71,.47-1.46,.36-2.13-.21-1.22,.34-1.43,1.31-1.35,1.13,.1,2.43,.68,2.84-1.09,.02-.07,.13-.12,.21-.16q1.02-.49,.36-1.39l1.06-.44c-.23-.52-.47-1.06-.71-1.59-.23-.52-.4-1.09-.73-1.53-.22-.3-.67-.58-1.02-.6-.97-.05-1.84,.09-2.16-1.29-.11-.46-1.25-.69-1.92-1.02-.82-.4-1.64-.79-2.46-1.18l-.12-.47c.61-.28,1.19-.64,1.83-.81,1.01-.26,2.15-.17,3.06-.6,1.65-.78,3.18-1.82,4.84-2.81,1.36,.39,2.47,1.21,2.82,2.83,.01,.05,.25,.05,.38,.07,0,.68,0,1.35,0,2.13,.3,.07,.64,.19,.98,.23,1.43,.15,2.15,1.13,2.41,2.35,.22,1.01,.1,2.08-1.21,2.49-.17,.05-.35,.5-.31,.73,.1,.59,.32,1.16,.5,1.75,2.06-1.17,1.98-1.07,2.92,1.05,.44,.98,1.79,1.47,2.31,2.59,.03,.06,.25,.02,.39,.03,.47,.02,.94,.08,1.4,.05,.71-.03,1.41-.12,2.11-.19l.12-.42c-1.72-.09-1.38-1.29-1.49-2.29-.14-1.22,.15-1.5,1.32-1.56,1.14-.06,2.27-.34,3.4-.52-.19-.22-.36-.18-.49-.23-.89-.33-2.1-.44-2.57-1.09-.41-.57-.17-1.81,.14-2.62,.47-1.21,.04-1.87-.92-2.41-.37-.21-.79-.34-1.22-.53,.37-.87,1.26-1.54,.19-2.52-.61-.56-.87-1.5-1.36-2.41l.34-1.32-1.86-1.56c-.1,.12-.2,.26-.32,.38-.85,.91-1.61,2.43-2.58,2.59-1.46,.24-1.86,1.28-2.67,2.03-.45,.42-.79,.96-1.2,1.43-.02,.02-.23-.12-.34-.18Z"/></svg>