<?xml version="1.0" encoding="UTF-8"?><svg id="a" xmlns="http://www.w3.org/2000/svg" viewBox="0 0 40.46 50"><defs><style>.b{fill:#fff;}</style></defs><path class="b" d="M31.89,31.49c-.27-.19-.41-.71-.91-.41-.02,.01-.14-.12-.2-.21-.3-.47-.53-.52-1.02-.21-.34,.22-.69,.43-1.12,.71,0-.01,0,.11-.04,.22-.16,.46-.62,.55-.92,.16-.2-.26-.34-.57-.56-.81-.64-.69-1.35-1.25-2.36-1.21-.13,0-.32,.03-.38,.12-.26,.4-.57,.72-1.05,.83-.24,.06-.49,.2-.69,.15-.13-.03-.21-.35-.27-.56-.04-.14-.02-.31-.12-.38-.15-.11-.29-.24-.45-.33-.08-.04-.2-.05-.29-.02-1.06,.31-2.07,.69-2.79,1.61-.22,.29-.47,.58-.77,.78-.27,.18-.61,.32-.93,.36-.47,.06-.96,.07-1.44,.02-.37-.04-.73-.17-1.08-.3-.61-.23-.87-.1-1,.54-.16,.76-.37,1.51-.5,2.28-.09,.56-.07,1.14-.09,1.71-.03,.73-.03,1.46-.07,2.18-.01,.2-.09,.44-.23,.57-.39,.38-.42,.86-.46,1.35-.04,.5-.06,1.01-.13,1.51-.09,.63,.08,1.16,.35,1.74,.4,.84,.12,1.69-.3,2.48-.18,.35-.34,.71-.5,1.06-.06,.13-.06,.29-.14,.39-.38,.45-.26,.97-.23,1.48,.01,.23-.06,.64-.17,.67-.25,.06-.58,0-.8-.14-.73-.49-1.38-1.11-2.15-1.53-.68-.38-.87-1.12-1.42-1.58-.08-.07-.07-.24-.1-.38l1.55,.84,.1-.13c-1.07-1.08-2.46-1.89-3.02-3.39l.11-.1c.06,.03,.12,.05,.17,.08,.05,.04,.09,.09,.23,.26l-.35-.94c-.69,.13-1.1,.11-1.35-.55-.22-.58-.71-1.11-.38-1.79,.17-.35,.39-.67,.63-1.08l.45,.02c-.13-.34-.21-.62-.34-.87-.02-.04-.27,.04-.38,.06l-2.05-4.95,.5,.06,.03-.18c-.18-.03-.36-.09-.54-.1-.24-.02-.47,0-.81,0,.68-1.05,.02-1.79-.39-2.54l.99-.7q-.53-.37-.9,.3c-.29-.8-.61-1.47-.77-2.18-.14-.58,.44-.95,.98-.69,.11,.05,.23,.09,.33,.15,.41,.24,.81,.36,1.23-.19-.01,.9,.78,.82,1.15,1.33l.11-.43,.93,.31-.03-.52,2.27,.41c.13,.63,.72,.31,1.03,.35,.32-.28,.55-.48,.78-.69,.09-.08,.24-.14,.26-.24,.15-.58,.67-.56,1.09-.68,.09-.02,.22,.11,.32,.18,.38,.29,.61,.26,.79-.18,.38-.92,.74-1.86,1.09-2.75,.71-.2,.7-.83,.88-1.35l.84,.06c-.06-.57,.28-.78,.66-1.04,.46-.31,.84-.77,1.25-1.15,.29-.28,.55-.64,.9-.8,1.09-.52,1.51-1.57,2.09-2.5,.2-.32,.2-.78,.41-1.09,.38-.55,.87-1.03,1.29-1.56,.3-.38,.84-.59,.68-1.28-.06-.25,.24-.64,.47-.88,.3-.32,.46-.59,.27-1.03-.14-.31-.17-.69-.34-.98-.48-.79-.13-1.56-.06-2.27l.78-.14c.44,.16,.92,.35,1.42,.49,.12,.03,.4-.11,.44-.23,.32-.91,.35-.94,1.24-.83l1.62-1.72-.09-.11c.12,0,.24-.02,.36,0,.49,.1,.77-.03,1.06-.52,.27-.44,.58-1.11,1.36-.94,.06,.01,.2-.05,.22-.1,.14-.39,.39-.68,.65-1.01,.32-.38,.4-.95,.66-1.34,.29-.19,.58-.39,.88-.57,.1-.06,.22-.08,.33-.12,.11-.04,.32-.06,.33-.12,.09-.61,.83-.54,1.05-1.01,.04-.08,.19-.19,.24-.17,.47,.17,.83-.09,1.22-.27,.21-.1,.45-.16,.68-.18,.35-.04,.72-.08,1.07-.03,.41,.05,.82,.17,1.2,.31,.15,.05,.29,.25,.33,.41,.08,.3,.07,.61,.1,.92,0,.05,0,.13,.03,.15,.48,.34,.68,.8,.54,1.51l-1.1,.52,.22,.44c-.96,.52-1.03,.63-.9,1.38,.32,.14,.8-.04,.95,.49,.01,.05,.35,0,.43,0,.38,.32,.73,.6,1.06,.9,.16,.15,.37,.34,.38,.53,.02,.29-.06,.57-.45,.72-.56,.23-1.04,.64-1.6,.88-.41,.18-.89,.21-1.33,.32-.15,.04-.33,.1-.43,.21-.32,.34-.58,.75-.92,1.06-.28,.26-.61,.47-.96,.63-.35,.16-.68,.66-.67,1.07,0,.27-.12,.55-.16,.82-.02,.14-.01,.28,.01,.42,.08,.39,.25,.79-.3,1.01-.08,.03-.19,.16-.19,.23,.02,.66-.37,.96-1.07,1.08,.68,.39,.59,.91,.54,1.45-.03,.33,.17,.7,.09,1-.17,.63-.49,1.21-.7,1.83-.06,.19-.05,.48,.06,.63,.49,.68,.4,.97-.4,1.15-.41,.09-.3,.45-.3,.72,0,.29,.17,.62-.35,.7-.13,.02-.24,.35-.31,.56-.13,.41-.65,.54-.67,1.06,0,.19-.32,.37-.39,.44,0,.47-.03,.85,0,1.22,.02,.23,.13,.46,.21,.69,.07,.21,.25,.44,.2,.63-.09,.38,.09,.61,.21,.93,.17,.48,.39,.69,.89,.76,.5,.06,.47,.42,.24,.8,.4,.23,.55,.52,.16,.9Z"/></svg>