<?xml version="1.0" encoding="UTF-8"?><svg id="a" xmlns="http://www.w3.org/2000/svg" viewBox="0 0 54.3 50"><defs><style>.b{fill:#fff;}</style></defs><path class="b" d="M1.47,28.79c.06-.11,.1-.27,.19-.31,.84-.37,1.69-.71,2.63-1.1v-1.67l-.74-.08v-2.01l.94-.52-1.04-.16-.24-1.16-.18,.04,1.07-2.51,.45,.18c.17-.73-.36-.35-.58-.37l.24-2h.28c-.51,.81,.34,.97,.47,1.28l2.53-.55,.02-.08c-.54,0-1.07,0-1.61,0-.75,0-.93-.22-.6-.9,.29-.6,.66-1.15,1.04-1.79-.82-.86,.42-1.1,.79-1.86-.36,.23-.53,.41-.74,.47-.26,.07-.57,.11-.8,.01-.16-.06-.29-.37-.3-.57-.01-.53,.05-1.07,.08-1.57l1.02-.39c-.06-.25-.21-.49-.15-.64,.28-.68,.63-1.33,.96-2.03,.49,.35,1.07,.51,1.75,.06-.67-.27-1.5,.04-1.89-.66-.12-.21-.02-.54-.02-.92,.87,.59,1.83,.95,2.34,1.65,.55,.76,1.07,1.23,1.99,1.4,.26,.05,.52,.54,.63,.88,.21,.66,.63,.87,1.25,.85v-.98c.3,.15,.63,.28,.9,.47,.87,.61,1.76,.42,2.27-.53,.37-.69,.67-1.42,1.05-2.1,.09-.17,.33-.34,.51-.36,.98-.09,1.78-.65,2.24-1.67l-.45-.16c.3-.87,.48-.91,1.22-.37,.14,.1,.42,.09,.61,.03,.11-.04,.22-.28,.21-.42-.16-1.7,.21-2.1,1.89-2.06,.07,0,.13,0,.21-.02,.29-.38-.24-1.18,.63-1.27,.52,.6,1.23,.58,1.74-.04,.2-.24,.35-.53,.57-.76,.14-.15,.34-.26,.53-.32,1.66-.46,3.5-.05,5.08-1.07,.26-.17,1.06-.08,1.1,.61,.24-.06,.46-.12,.67-.18,.12-.03,.29-.03,.35-.11,.37-.56,.77-.52,1.31-.21,.68,.4,1.46,.66,2.13,1.09,.32,.2,.5,.63,.75,.96,.43-.16,.88-.38,1.36-.47,.09-.02,.28,.49,.43,.77-1.45,.53-1.45,.54-1.36,1.29,.35,.08,.64,.13,.91,.22,.39,.13,.79,.26,1.16,.44,.16,.08,.28,.29,.34,.46,.21,.57,.05,.74-.58,.65-.16,.77-.02,.81,.68,1,.91,.24,1.93,.4,2.41,1.47-.45,.49-.96,.95-1.36,1.5-.14,.2-.06,.6,0,.89,.08,.44,.01,.83-.05,1.27-.1,.69-.49,1.43,.12,2.23,.83,1.08,.91,1.58-.45,2.64,.18,.74,.93,.68,1.41,.98,.39,.24,.86,.39,1.21,.67,.48,.38,.89,.67,1.35,.05l1.13,.47c.25-.32,.54-.63,.76-.99,.21-.35,.33-.76,.51-1.19,.12,.1,.23,.14,.25,.21,.33,1.18,1.12,1.55,2.25,1,.6-.29,1.14-.42,1.76-.02,.26,.17,.67,.11,.95,.26,.17,.09,.37,.47,.3,.59-.19,.37-.52,.66-.76,1.01-.25,.37-.43,.78-.66,1.16-.24,.4-.39,.78,.18,1.11-.54,.6-1.03,1.15-1.53,1.69-.11,.12-.28,.17-.39,.28-.24,.25-.48,.51-.69,.78-.14,.18-.19,.44-.35,.58-.96,.83-1.54,1.83-1.74,3.1-.06,.39-.38,.75-.61,1.11-.59,.97-.96,2.07-1.9,2.8-.28,.21-.5,.51-.79,.7-.66,.45-1.42,.8-2.02,1.32-.68,.6-1.21,1.36-1.84,2.03-.3,.33-.61,.7-1,.88-.83,.39-1.41,.89-1.31,1.93-.31,0-.56,.01-.8,0-.92-.06-.92-.06-.98,.83,0,.1,.02,.29,0,.3-.72,.12-.55,.61-.41,1.16l-1.03,.08c-.66,1.71-1.32,3.46-2.05,5.19-.18,.43-.62,.74-.94,1.11l.04-.3-1.06-.67c-.47,.07-1,.06-1.44,.24-.34,.14-.81,.54-.8,.81,.02,.59-.49,.74-.71,.81-.68,.21-.81,.71-.94,1.3-.86-.27-2.15,.57-2.38-1.13l-.57,.48,.02-.17-3.67-.77,.05,1.04-1.86-.65,.12,.64c-.23-.02-.45,.02-.6-.06-.56-.32-1.13-.63-1.61-1.05-.2-.17-.17-.61-.27-1.04-.21,.16-.37,.35-.57,.42-.29,.11-.65,.26-.92,.18-.55-.17-1.03-.54-1.57-.72-.29-.1-.67-.02-.99,.07-.25,.07-.46,.27-.88,.53,0-.82-.04-1.48,0-2.14,.07-.94-.41-1.69-.74-2.5-.09-.23-.06-.5-.09-.76l.6,.28,.34-.99-1.28-.43c.14,.23,.42,.49,.4,.71-.02,.19-.4,.34-.63,.51-.11-.14-.22-.21-.21-.27,.12-.88-.45-1.36-1.02-1.86-.92-.8-1.82-1.62-2.72-2.44-.15-.14-.23-.35-.33-.49-.24-.07-.53-.09-.76-.22-.88-.5-1.74-1.03-2.62-1.55-.3-.18-.19-.82,.15-1.23,.6-.72,1.2-1.44,1.74-2.2,.38-.54,.8-.88,1.5-.85,.64,.03,1.29,0,1.95-.15-.13-.03-.26-.08-.38-.08-.61,.02-1.22,.1-1.83,.07-.9-.04-1.37,.51-1.82,1.16-.45,.65-.94,1.28-1.42,1.9-.44,.56-.95,.29-1.43,.07-.32-.15-.6-.39-.93-.62l-.4,.59-.15-1.8,.78,.35-.14-.75,.8-.08v-.07l-.88-.07,.94-2.45-.02-.65Z"/></svg>