<?xml version="1.0" encoding="UTF-8"?><svg id="a" xmlns="http://www.w3.org/2000/svg" viewBox="0 0 50 49.79"><path d="M18.59,43.23c0,1.04,0,2.06,0,3.07,0,.77-.22,1.47-.68,2.08-.68,.89-1.58,1.39-2.71,1.4-1.15,.01-2.3,.01-3.45,0-1.88-.02-3.4-1.54-3.43-3.42-.01-.9,0-1.8,0-2.7,0-.14,0-.28,0-.44-.93-.1-1.71-.44-2.34-1.11-.66-.7-.96-1.54-.96-2.49,0-8.7,0-17.39,0-26.09,0-1.49-.04-2.98,.07-4.46C5.43,4.94,8.5,1.35,12.52,.35c.8-.2,1.65-.32,2.47-.32C21.65,0,28.31,0,34.97,.01c5.02,.02,9.24,3.74,9.92,8.71,.07,.49,.09,.99,.09,1.48,0,9.77,0,19.53,0,29.3,0,2.04-1.21,3.43-3.29,3.71,0,.14,0,.29,0,.44-.02,1.08,.04,2.17-.08,3.24-.18,1.61-1.65,2.85-3.27,2.87-1.19,.02-2.38,.02-3.56,0-1.8-.03-3.3-1.51-3.35-3.32-.02-.93,0-1.85,0-2.78,0-.14,0-.28,0-.45h-12.82Zm-9.87-13.62H41.26V10.3H8.72V29.61ZM31.39,3.71h-12.76v2.85h12.76V3.71ZM14.91,36.42c0-1.72-1.41-3.11-3.12-3.09-1.69,.01-3.09,1.43-3.08,3.11,0,1.71,1.41,3.09,3.14,3.08,1.71,0,3.07-1.39,3.07-3.1Zm20.18,.02c0,1.73,1.38,3.09,3.12,3.09,1.7,0,3.08-1.4,3.08-3.1,0-1.7-1.42-3.11-3.13-3.1-1.69,0-3.07,1.4-3.07,3.11Z"/><path d="M3.66,23.43c-.69,0-1.37,.05-2.05-.01-.91-.08-1.6-.86-1.61-1.78,0-2.22-.01-4.44,0-6.66,0-1,.8-1.79,1.79-1.8,.61,0,1.22,0,1.86,0v10.25Z"/><path d="M46.33,23.44V13.21c.75,0,1.5-.08,2.22,.02,.87,.12,1.44,.9,1.45,1.79,0,2.19,0,4.39,0,6.58,0,1.04-.8,1.82-1.84,1.84-.6,0-1.19,0-1.82,0Z"/></svg>