<svg width="16" height="16" viewBox="0 0 16 16" fill="none" xmlns="http://www.w3.org/2000/svg">
<path d="M7.2 8.8C7.2 8.58783 7.28429 8.38434 7.43431 8.23431C7.58434 8.08429 7.78783 8 8 8C8.21217 8 8.41566 8.08429 8.56569 8.23431C8.71571 8.38434 8.8 8.58783 8.8 8.8V11.2C8.8 11.4122 8.71571 11.6157 8.56569 11.7657C8.41566 11.9157 8.21217 12 8 12C7.78783 12 7.58434 11.9157 7.43431 11.7657C7.28429 11.6157 7.2 11.4122 7.2 11.2V8.8ZM8 4.4C7.68174 4.4 7.37652 4.52643 7.15147 4.75147C6.92643 4.97652 6.8 5.28174 6.8 5.6C6.8 5.91826 6.92643 6.22348 7.15147 6.44853C7.37652 6.67357 7.68174 6.8 8 6.8C8.31826 6.8 8.62348 6.67357 8.84853 6.44853C9.07357 6.22348 9.2 5.91826 9.2 5.6C9.2 5.28174 9.07357 4.97652 8.84853 4.75147C8.62348 4.52643 8.31826 4.4 8 4.4ZM0 8C0 5.87827 0.842855 3.84344 2.34315 2.34315C3.84344 0.842855 5.87827 0 8 0C10.1217 0 12.1566 0.842855 13.6569 2.34315C15.1571 3.84344 16 5.87827 16 8C16 10.1217 15.1571 12.1566 13.6569 13.6569C12.1566 15.1571 10.1217 16 8 16C5.87827 16 3.84344 15.1571 2.34315 13.6569C0.842855 12.1566 0 10.1217 0 8ZM8 1.6C6.30261 1.6 4.67475 2.27428 3.47452 3.47452C2.27428 4.67475 1.6 6.30261 1.6 8C1.6 9.69739 2.27428 11.3253 3.47452 12.5255C4.67475 13.7257 6.30261 14.4 8 14.4C9.69739 14.4 11.3253 13.7257 12.5255 12.5255C13.7257 11.3253 14.4 9.69739 14.4 8C14.4 6.30261 13.7257 4.67475 12.5255 3.47452C11.3253 2.27428 9.69739 1.6 8 1.6Z" fill="black"/>
</svg>
