<svg width="24" height="30" viewBox="0 0 24 30" fill="none" xmlns="http://www.w3.org/2000/svg">
<path d="M11.8813 6C13.5382 6 14.8813 4.65685 14.8813 3C14.8813 1.34315 13.5382 0 11.8813 0C10.2245 0 8.88135 1.34315 8.88135 3C8.88135 4.65685 10.2245 6 11.8813 6Z" fill="black"/>
<path d="M17.7163 9.165C17.1313 8.58 16.1263 7.5 14.1763 7.5H10.3663C8.602 7.49067 6.8969 6.86246 5.54825 5.72488C4.1996 4.5873 3.29295 3.0125 2.98633 1.275C2.93343 0.922174 2.75626 0.599841 2.48674 0.366078C2.21723 0.132314 1.87309 0.0024912 1.51633 0C0.601327 0 -0.118673 0.81 0.0163274 1.71C0.342996 3.65078 1.20575 5.46159 2.50718 6.93795C3.8086 8.41431 5.49686 9.49743 7.38133 10.065V28.5C7.38133 29.325 8.05633 30 8.88133 30C9.70633 30 10.3813 29.325 10.3813 28.5V21H13.3813V28.5C13.3813 29.325 14.0563 30 14.8813 30C15.7063 30 16.3813 29.325 16.3813 28.5V12.075L21.2413 16.935C21.3802 17.0739 21.5451 17.184 21.7265 17.2592C21.908 17.3343 22.1024 17.373 22.2988 17.373C22.4952 17.373 22.6897 17.3343 22.8711 17.2592C23.0526 17.184 23.2175 17.0739 23.3563 16.935C23.4952 16.7961 23.6054 16.6313 23.6805 16.4498C23.7557 16.2684 23.7944 16.0739 23.7944 15.8775C23.7944 15.6811 23.7557 15.4866 23.6805 15.3052C23.6054 15.1237 23.4952 14.9589 23.3563 14.82L17.7163 9.165Z" fill="black"/>
</svg>
