<svg width="21" height="16" viewBox="0 0 21 16" fill="none" xmlns="http://www.w3.org/2000/svg">
<path d="M4.66833 13.6896C4.56071 13.5856 4.47487 13.4613 4.41582 13.3238C4.35677 13.1864 4.32568 13.0385 4.32438 12.8889C4.32308 12.7393 4.35159 12.5909 4.40825 12.4524C4.4649 12.314 4.54857 12.1882 4.65436 12.0824C4.76016 11.9766 4.88596 11.8929 5.02443 11.8363C5.16291 11.7796 5.31128 11.7511 5.46089 11.7524C5.6105 11.7537 5.75835 11.7848 5.89582 11.8438C6.03329 11.9029 6.15762 11.9887 6.26156 12.0963C7.04947 12.8844 8.05341 13.4212 9.1464 13.6386C10.2394 13.8561 11.3723 13.7445 12.4019 13.3181C13.4315 12.8916 14.3114 12.1693 14.9304 11.2426C15.5495 10.316 15.8798 9.22652 15.8796 8.11211C15.8796 7.81328 15.9983 7.52668 16.2096 7.31537C16.4209 7.10406 16.7075 6.98535 17.0063 6.98535C17.3052 6.98535 17.5918 7.10406 17.8031 7.31537C18.0144 7.52668 18.1331 7.81328 18.1331 8.11211C18.1332 9.67216 17.6707 11.1972 16.804 12.4944C15.9374 13.7915 14.7055 14.8026 13.2642 15.3996C11.8229 15.9966 10.237 16.1528 8.70689 15.8484C7.17683 15.544 5.77139 14.7927 4.66833 13.6896Z" fill="black"/>
<path d="M14.2559 11.3031C14.1328 11.3852 13.9947 11.4423 13.8496 11.4711C13.7044 11.4998 13.555 11.4997 13.4099 11.4707C13.2647 11.4417 13.1268 11.3845 13.0038 11.3021C12.8808 11.2198 12.7752 11.1141 12.6931 10.991C12.5272 10.7424 12.467 10.438 12.5255 10.145C12.584 9.85187 12.7566 9.59404 13.0052 9.42818L16.3855 7.17467C16.5086 7.09254 16.6467 7.03547 16.7918 7.00671C16.937 6.97795 17.0864 6.97807 17.2315 7.00705C17.3767 7.03603 17.5147 7.09332 17.6376 7.17563C17.7606 7.25794 17.8662 7.36367 17.9483 7.48678C18.0304 7.60989 18.0875 7.74797 18.1163 7.89313C18.145 8.0383 18.1449 8.1877 18.1159 8.33283C18.0869 8.47795 18.0297 8.61594 17.9473 8.73892C17.865 8.8619 17.7593 8.96747 17.6362 9.04959L14.2559 11.3031Z" fill="black"/>
<path d="M20.1973 10.867C20.3632 11.1157 20.4234 11.42 20.3649 11.7131C20.3064 12.0062 20.1338 12.264 19.8852 12.4299C19.6366 12.5957 19.3322 12.656 19.0391 12.5975C18.7461 12.5389 18.4882 12.3664 18.3224 12.1177L16.0689 8.73746C15.9867 8.61435 15.9297 8.47627 15.9009 8.33111C15.8721 8.18594 15.8723 8.03654 15.9012 7.89142C15.9598 7.59833 16.1323 7.3405 16.381 7.17465C16.6296 7.0088 16.9339 6.9485 17.227 7.00704C17.5201 7.06557 17.7779 7.23813 17.9438 7.48676L20.1973 10.867ZM15.7184 2.31043C15.8261 2.41437 15.9119 2.5387 15.9709 2.67617C16.03 2.81364 16.0611 2.96149 16.0624 3.1111C16.0637 3.26071 16.0352 3.40908 15.9785 3.54756C15.9219 3.68603 15.8382 3.81184 15.7324 3.91763C15.6266 4.02343 15.5008 4.10709 15.3623 4.16375C15.2239 4.2204 15.0755 4.24891 14.9259 4.24761C14.7763 4.24631 14.6284 4.21523 14.4909 4.15617C14.3535 4.09712 14.2291 4.01128 14.1252 3.90367C13.3373 3.11555 12.3334 2.57882 11.2404 2.36135C10.1474 2.14388 9.01445 2.25545 7.98487 2.68195C6.9553 3.10844 6.07535 3.8307 5.45631 4.75737C4.83728 5.68403 4.50697 6.77347 4.50718 7.88789C4.50718 8.18672 4.38847 8.47332 4.17716 8.68463C3.96585 8.89593 3.67926 9.01465 3.38042 9.01465C3.08159 9.01465 2.79499 8.89593 2.58368 8.68463C2.37237 8.47332 2.25366 8.18672 2.25366 7.88789C2.25355 6.32784 2.71607 4.8028 3.58273 3.50563C4.44939 2.20847 5.68127 1.19744 7.12255 0.600422C8.56384 0.00340246 10.1498 -0.152794 11.6799 0.151587C13.2099 0.455968 14.6154 1.20725 15.7184 2.31043Z" fill="black"/>
<path d="M6.13198 4.69689C6.38061 4.53103 6.68494 4.47074 6.97803 4.52927C7.27111 4.58781 7.52894 4.76037 7.6948 5.009C7.86065 5.25763 7.92094 5.56196 7.86241 5.85505C7.80388 6.14813 7.63131 6.40596 7.38268 6.57181L4.00128 8.82533C3.87817 8.90746 3.74009 8.96452 3.59493 8.99328C3.44976 9.02204 3.30035 9.02193 3.15523 8.99295C3.01011 8.96396 2.87212 8.90668 2.74914 8.82437C2.62615 8.74206 2.52059 8.63633 2.43846 8.51322C2.27261 8.26459 2.21232 7.96026 2.27085 7.66717C2.32938 7.37409 2.50195 7.11626 2.75058 6.95041L6.13198 4.69689Z" fill="black"/>
<path d="M0.189436 5.13293C0.107314 5.00982 0.0502435 4.87174 0.0214844 4.72657C-0.00727479 4.58141 -0.00715991 4.432 0.0218224 4.28688C0.0508047 4.14176 0.108087 4.00377 0.190398 3.88078C0.27271 3.7578 0.378439 3.65223 0.501548 3.57011C0.624658 3.48799 0.762737 3.43092 0.907902 3.40216C1.05307 3.3734 1.20248 3.37352 1.3476 3.4025C1.49272 3.43148 1.63071 3.48876 1.75369 3.57107C1.87667 3.65339 1.98224 3.75911 2.06436 3.88222L4.31788 7.2625C4.4 7.38561 4.45707 7.52369 4.48583 7.66886C4.51459 7.81402 4.51448 7.96343 4.4855 8.10855C4.45651 8.25367 4.39923 8.39166 4.31692 8.51465C4.23461 8.63763 4.12888 8.74319 4.00577 8.82532C3.88266 8.90744 3.74458 8.96451 3.59942 8.99327C3.45425 9.02203 3.30484 9.02191 3.15972 8.99293C3.0146 8.96395 2.87661 8.90667 2.75363 8.82435C2.63064 8.74204 2.52508 8.63631 2.44295 8.5132L0.189436 5.13293Z" fill="black"/>
</svg>
